<svg width="98" height="98" viewBox="0 0 98 98" fill="none" xmlns="http://www.w3.org/2000/svg">
<circle cx="49" cy="49" r="48" stroke="#FF9661" stroke-width="2"/>
<path d="M45.7083 57.875H62.4583V63.4583H45.7083V57.875ZM40.125 35.5417H34.5417V41.125H40.125V35.5417ZM45.7083 52.2917H62.4583V46.7083H45.7083V52.2917ZM45.7083 41.125H62.4583V35.5417H45.7083V41.125ZM40.125 46.7083H34.5417V52.2917H40.125V46.7083ZM73.625 29.9583V69.0417C73.625 72.1125 71.1125 74.625 68.0417 74.625H28.9583C25.8875 74.625 23.375 72.1125 23.375 69.0417V29.9583C23.375 26.8875 25.8875 24.375 28.9583 24.375H68.0417C71.1125 24.375 73.625 26.8875 73.625 29.9583ZM68.0417 29.9583H28.9583V69.0417H68.0417V29.9583ZM40.125 57.875H34.5417V63.4583H40.125V57.875Z" fill="#FF9661"/>
</svg>
