<svg width="98" height="98" viewBox="0 0 98 98" fill="none" xmlns="http://www.w3.org/2000/svg">
<circle cx="49" cy="49" r="48" stroke="#FF9661" stroke-width="2"/>
<path d="M75.5793 67.925V65.1333L78.6501 62.9C78.9292 62.6208 79.2084 62.3416 78.9292 62.0625L76.1376 57.3166C76.1376 57.0375 75.5793 57.0375 75.3001 57.0375L71.9501 58.4333C71.1126 57.875 70.2751 57.3166 69.4376 57.0375L68.8792 53.4083C68.8792 53.1291 68.6001 52.85 68.3209 52.85H62.7376C62.1792 52.85 61.9001 53.1291 61.9001 53.4083L61.3418 57.0375C60.5042 57.5958 59.9459 57.875 59.1084 58.4333L55.7584 57.0375C55.4793 57.0375 55.2001 57.0375 54.9209 57.3166L52.1292 62.0625C52.1292 62.3416 52.1292 62.6208 52.4084 62.9L55.4792 65.1333V67.925L52.4084 70.1583C52.1292 70.4375 51.8501 70.7166 52.1292 70.9958L54.9209 75.7416C55.2001 76.0208 55.4793 76.0208 55.7584 76.0208L59.1084 74.625C59.6667 75.1833 60.5042 75.7416 61.3418 76.0208L61.9001 79.65C62.1792 79.9291 62.4584 80.2083 62.7376 80.2083H68.3209C68.6001 80.2083 68.8792 79.9291 68.8792 79.65L69.4376 76.0208C70.2751 75.4625 70.8334 75.1833 71.6709 74.625L75.0209 75.7416C75.3001 75.7416 75.5792 75.7416 75.8584 75.4625L78.6501 70.7166C78.9292 70.4375 78.9292 70.1583 78.6501 70.1583L75.5793 67.925ZM65.2501 70.4375C63.0168 70.4375 61.0626 68.4833 61.0626 66.25C61.0626 64.0166 63.0168 62.0625 65.2501 62.0625C67.4834 62.0625 69.4376 64.0166 69.4376 66.25C69.4376 68.4833 67.4834 70.4375 65.2501 70.4375ZM49.3376 77.4166H23.3751C20.3042 77.4166 17.7917 74.9041 17.7917 71.8333V27.1666C17.7917 24.0958 20.3042 21.5833 23.3751 21.5833H73.6251C76.6959 21.5833 79.2084 24.0958 79.2084 27.1666V52.5708C77.5334 50.8958 75.5793 49.5 73.6251 48.6625V32.75H23.3751V71.8333H46.5459C47.1042 73.7875 47.9417 75.7416 49.3376 77.4166Z" fill="#FF9661"/>
</svg>
