<svg width="98" height="98" viewBox="0 0 98 98" fill="none" xmlns="http://www.w3.org/2000/svg">
<circle cx="49" cy="49" r="48" stroke="#FF9661" stroke-width="2"/>
<path d="M23.375 64.1563V74.625H33.8437L64.7195 43.7213L54.2508 33.2525L23.375 64.1563ZM78.1195 67.255L66.255 79.1196L51.7383 64.6029L56.6795 59.6617L59.4712 62.4533L66.3666 55.53L70.3308 59.4942L66.255 63.4583L69.2141 66.25L73.1783 62.3417L78.1195 67.255ZM33.4529 46.2338L18.8804 31.745L30.745 19.8804L35.6583 24.8217L28.7629 31.745L31.75 34.7042L38.6175 27.7808L42.5816 31.745L38.6175 35.6813L41.4091 38.4729L33.4529 46.2338ZM72.8154 35.5417C73.9041 34.4529 73.9041 32.75 72.8154 31.6054L66.2829 25.1846C65.25 24.0958 63.4354 24.0958 62.3466 25.1846L57.21 30.2933L67.6787 40.7621L72.8154 35.5417Z" fill="#FF9661"/>
</svg>
