<svg width="98" height="98" viewBox="0 0 98 98" fill="none" xmlns="http://www.w3.org/2000/svg">
<circle cx="49" cy="49" r="48" stroke="#FF9661" stroke-width="2"/>
<path d="M73.6251 59.6666V26.1666H23.3751V59.6666H73.6251ZM73.6251 20.5833C75.1059 20.5833 76.526 21.1716 77.5731 22.2186C78.6202 23.2657 79.2084 24.6859 79.2084 26.1666V59.6666C79.2084 61.1474 78.6202 62.5676 77.5731 63.6147C76.526 64.6617 75.1059 65.25 73.6251 65.25H54.0834V70.8333H59.6667V76.4166H37.3334V70.8333H42.9167V65.25H23.3751C20.2763 65.25 17.7917 62.7375 17.7917 59.6666V26.1666C17.7917 23.0679 20.2763 20.5833 23.3751 20.5833H73.6251ZM28.9584 31.75H54.0834V45.7083H28.9584V31.75ZM56.8751 31.75H68.0417V37.3333H56.8751V31.75ZM68.0417 40.125V54.0833H56.8751V40.125H68.0417ZM28.9584 48.5H40.1251V54.0833H28.9584V48.5ZM42.9167 48.5H54.0834V54.0833H42.9167V48.5Z" fill="#FF9661"/>
</svg>
