<svg width="23" height="23" viewBox="0 0 23 23" fill="none" xmlns="http://www.w3.org/2000/svg">
<path d="M19.1665 1.91666H3.83317C3.32484 1.91666 2.83733 2.11859 2.47788 2.47804C2.11844 2.83748 1.9165 3.32499 1.9165 3.83332V21.0833L5.74984 17.25H19.1665C19.6748 17.25 20.1623 17.0481 20.5218 16.6886C20.8812 16.3292 21.0832 15.8417 21.0832 15.3333V3.83332C21.0832 3.32499 20.8812 2.83748 20.5218 2.47804C20.1623 2.11859 19.6748 1.91666 19.1665 1.91666ZM5.74984 8.62499H17.2498V10.5417H5.74984M13.4165 13.4167H5.74984V11.5H13.4165M17.2498 7.66666H5.74984V5.74999H17.2498" fill="white"/>
</svg>
