<svg width="46" height="46" viewBox="0 0 46 46" fill="none" xmlns="http://www.w3.org/2000/svg">
<path d="M46 23C46 35.7025 35.7025 46 23 46C10.2975 46 0 35.7025 0 23C0 10.2975 10.2975 0 23 0C35.7025 0 46 10.2975 46 23Z" fill="#FF9661"/>
<path d="M19.9444 31.8095H25.0556C25.0556 33.0143 23.9056 34 22.5 34C21.0944 34 19.9444 33.0143 19.9444 31.8095ZM34 29.619V30.7143H11V29.619L13.5556 27.4286V20.8571C13.5556 17.4619 16.1111 14.5048 19.9444 13.519V13.1905C19.9444 11.9857 21.0944 11 22.5 11C23.9056 11 25.0556 11.9857 25.0556 13.1905V13.519C28.8889 14.5048 31.4444 17.4619 31.4444 20.8571V27.4286L34 29.619ZM28.8889 20.8571C28.8889 17.7905 26.0778 15.381 22.5 15.381C18.9222 15.381 16.1111 17.7905 16.1111 20.8571V28.5238H28.8889V20.8571Z" fill="white"/>
</svg>
