<svg width="44" height="44" viewBox="0 0 44 44" fill="none" xmlns="http://www.w3.org/2000/svg">
<path fill-rule="evenodd" clip-rule="evenodd" d="M22 23C18.134 23 15 26.134 15 30V32C15 32.5523 14.5523 33 14 33C13.4477 33 13 32.5523 13 32V30C13 25.0294 17.0294 21 22 21C26.9706 21 31 25.0294 31 30V32C31 32.5523 30.5523 33 30 33C29.4477 33 29 32.5523 29 32V30C29 26.134 25.866 23 22 23Z" fill="#777E91"/>
<path fill-rule="evenodd" clip-rule="evenodd" d="M22 21C24.2091 21 26 19.2091 26 17C26 14.7909 24.2091 13 22 13C19.7909 13 18 14.7909 18 17C18 19.2091 19.7909 21 22 21ZM22 23C25.3137 23 28 20.3137 28 17C28 13.6863 25.3137 11 22 11C18.6863 11 16 13.6863 16 17C16 20.3137 18.6863 23 22 23Z" fill="#777E91"/>
</svg>
