<svg width="99" height="98" viewBox="0 0 99 98" fill="none" xmlns="http://www.w3.org/2000/svg">
<circle cx="49.5" cy="49" r="48" stroke="#FF9661" stroke-width="2"/>
<path d="M49.5 30.3542C52.0914 30.3542 54.5766 31.3836 56.409 33.216C58.2414 35.0484 59.2708 37.5336 59.2708 40.125C59.2708 42.7164 58.2414 45.2017 56.409 47.034C54.5766 48.8664 52.0914 49.8959 49.5 49.8959C46.9086 49.8959 44.4234 48.8664 42.591 47.034C40.7586 45.2017 39.7292 42.7164 39.7292 40.125C39.7292 37.5336 40.7586 35.0484 42.591 33.216C44.4234 31.3836 46.9086 30.3542 49.5 30.3542ZM29.9583 37.3334C31.5217 37.3334 32.9733 37.7521 34.2296 38.5059C33.8108 42.4979 34.9833 46.4621 37.3842 49.5609C35.9883 52.2409 33.1967 54.0834 29.9583 54.0834C27.7371 54.0834 25.6069 53.201 24.0363 51.6304C22.4657 50.0598 21.5833 47.9295 21.5833 45.7084C21.5833 43.4872 22.4657 41.357 24.0363 39.7863C25.6069 38.2157 27.7371 37.3334 29.9583 37.3334ZM69.0417 37.3334C71.2629 37.3334 73.3931 38.2157 74.9637 39.7863C76.5343 41.357 77.4167 43.4872 77.4167 45.7084C77.4167 47.9295 76.5343 50.0598 74.9637 51.6304C73.3931 53.201 71.2629 54.0834 69.0417 54.0834C65.8033 54.0834 63.0117 52.2409 61.6158 49.5609C64.0167 46.4621 65.1892 42.4979 64.7704 38.5059C66.0267 37.7521 67.4783 37.3334 69.0417 37.3334ZM31.3542 65.9479C31.3542 60.1692 39.4779 55.4792 49.5 55.4792C59.5221 55.4792 67.6458 60.1692 67.6458 65.9479V70.8334H31.3542V65.9479ZM16 70.8334V66.6459C16 62.7654 21.2762 59.4992 28.4229 58.55C26.7758 60.4484 25.7708 63.0725 25.7708 65.9479V70.8334H16ZM83 70.8334H73.2292V65.9479C73.2292 63.0725 72.2242 60.4484 70.5771 58.55C77.7238 59.4992 83 62.7654 83 66.6459V70.8334Z" fill="#FF9661"/>
</svg>
